<?xml version="1.0" encoding="UTF-8" standalone="no"?>
<svg width="512" height="512" viewBox="0 0 512 512" fill="none" xmlns="http://www.w3.org/2000/svg">
  <circle cx="256" cy="256" r="256" fill="#8BC34A" />
  <path d="M256 90C164.2 90 90 164.2 90 256C90 347.8 164.2 422 256 422C347.8 422 422 347.8 422 256C422 164.2 347.8 90 256 90ZM256 382C186.5 382 130 325.5 130 256C130 186.5 186.5 130 256 130C325.5 130 382 186.5 382 256C382 325.5 325.5 382 256 382Z" fill="#2E7D32" />
  <path d="M256 170C209.1 170 170 209.1 170 256C170 302.9 209.1 342 256 342C302.9 342 342 302.9 342 256C342 209.1 302.9 170 256 170ZM256 302C231.1 302 210 280.9 210 256C210 231.1 231.1 210 256 210C280.9 210 302 231.1 302 256C302 280.9 280.9 302 256 302Z" fill="#FFD600" />
  <path d="M346 110L376 140M166 110L136 140M346 402L376 372M166 402L136 372" stroke="#2E7D32" stroke-width="20" stroke-linecap="round" />
</svg>
