<?xml version="1.0" encoding="UTF-8" standalone="no"?>
<svg width="512" height="512" viewBox="0 0 512 512" fill="none" xmlns="http://www.w3.org/2000/svg">
  <path d="M256 64C150 64 64 150 64 256C64 362 150 448 256 448C362 448 448 362 448 256C448 150 362 64 256 64ZM256 400C176.5 400 112 335.5 112 256C112 176.5 176.5 112 256 112C335.5 112 400 176.5 400 256C400 335.5 335.5 400 256 400ZM336 192C336 226.9 308.9 256 274 256C272.7 256 271.4 255.9 270.1 255.8C278.5 268.3 283.3 283.6 283.3 300C283.3 345.1 246.9 382 201.3 382C155.7 382 119.3 345.1 119.3 300C119.3 254.9 155.7 218 201.3 218C206.1 218 210.8 218.5 215.4 219.4C214.5 214.8 214 209.1 214 204.3C214 159.2 250.4 122.8 295.5 122.8C340.6 122.8 377 159.2 377 204.3C377 209.1 376.5 213.8 375.6 218.4C376.5 217.6 377.5 216.9 378.5 216.2C384.2 212.8 390.7 211 396.8 211C412.4 211 426 224.6 426 240.2C426 255.8 412.4 269.4 396.8 269.4C390.7 269.4 384.2 267.6 378.5 264.2C363.4 254.9 350.5 240.1 342.8 222.5C339.6 206.5 326.4 194 310.1 192.6C309.5 175.8 295.1 162 277 162C258.9 162 244.5 175.8 243.9 192.6C227.6 194 214.4 206.5 211.2 222.5C210.8 225 210.5 227.5 210.5 230.1C236.5 227.5 259.3 240.1 268.5 260.7C292.5 252.7 336 230.1 336 192Z" fill="#8BC34A"/>
</svg>
