<?xml version="1.0" encoding="UTF-8" standalone="no"?>
<svg width="512" height="512" viewBox="0 0 512 512" fill="none" xmlns="http://www.w3.org/2000/svg">
  <path d="M256 128C203 128 160 171 160 224C160 277 203 320 256 320C309 320 352 277 352 224C352 171 309 128 256 128ZM378.2 199.4C386.4 259.8 346.2 315.5 288 323.8V384H224V323.8C165.8 315.5 125.6 259.8 133.8 199.4C142 139 197.7 98.8 258.1 107C318.5 115.2 370 170.9 378.2 199.4ZM256 64C150 64 64 150 64 256C64 362 150 448 256 448C362 448 448 362 448 256C448 150 362 64 256 64Z" fill="#8BC34A"/>
</svg>
