<?xml version="1.0" encoding="UTF-8" standalone="no"?>
<svg width="512" height="512" viewBox="0 0 512 512" fill="none" xmlns="http://www.w3.org/2000/svg">
  <path d="M416 128C416 57.3 358.7 0 288 0C230.1 0 181.1 40.7 168.6 96H128C57.3 96 0 153.3 0 224C0 281.9 40.7 330.9 96 343.4V400C96 461.9 146.1 512 208 512H304C365.9 512 416 461.9 416 400V343.4C471.3 330.9 512 281.9 512 224C512 153.3 454.7 96 384 96H343.4C330.9 40.7 281.9 0 224 0C153.3 0 96 57.3 96 128C96 185.9 136.7 234.9 192 247.4V304C192 356.7 234.1 400 288 400H320V247.4C375.3 234.9 416 185.9 416 128Z" fill="#8BC34A"/>
</svg>
